<?xml version="1.0" encoding="UTF-8" standalone="no"?>
<!-- Created with Inkscape (http://www.inkscape.org/) -->

<svg
   version="1.1"
   id="svg1"
   width="400"
   height="339"
   viewBox="0 0 400 339"
   sodipodi:docname="screenshape.svg"
   inkscape:version="1.4 (e7c3feb1, 2024-10-09)"
   xmlns:inkscape="http://www.inkscape.org/namespaces/inkscape"
   xmlns:sodipodi="http://sodipodi.sourceforge.net/DTD/sodipodi-0.dtd"
   xmlns="http://www.w3.org/2000/svg"
   xmlns:svg="http://www.w3.org/2000/svg">
  <sodipodi:namedview
     id="namedview1"
     pagecolor="#505050"
     bordercolor="#ffffff"
     borderopacity="1"
     inkscape:showpageshadow="0"
     inkscape:pageopacity="0"
     inkscape:pagecheckerboard="1"
     inkscape:deskcolor="#d1d1d1"
     inkscape:zoom="1.7943611"
     inkscape:cx="224.59248"
     inkscape:cy="176.66455"
     inkscape:window-width="1728"
     inkscape:window-height="1023"
     inkscape:window-x="0"
     inkscape:window-y="38"
     inkscape:window-maximized="1"
     inkscape:current-layer="g1" />
  <defs
     id="defs1" />
  <g
     id="g1">
    <path
       id="rect1"
       style="fill:#000000;fill-opacity:1;stroke-width:5.78997"
       d="M 126.43359 4.9960938 C 121.90856 4.9952443 117.96613 5.0414379 113.76562 5.0644531 C 112.4303 5.0735535 110.82084 5.0736319 109.51758 5.0859375 C 100.91873 5.1552718 92.885035 5.2961963 85.617188 5.5449219 C 77.413505 5.613546 70.404122 5.5995693 61.455078 5.734375 C 50.024278 6.260375 27.779659 6.4544308 16.199219 9.71875 C 10.824549 11.310979 7.3008244 14.393286 5.9589844 19.896484 C 4.5464344 26.67245 3.8739669 34.571624 3.6230469 45.136719 C 3.5444416 50.373677 3.4577333 62.056322 3.3710938 69.269531 C 2.2168146 89.516429 2.8064131 116.04395 2.5195312 150.94336 C 2.5194947 150.94781 2.5195678 150.95063 2.5195312 150.95508 C 2.5194951 150.95948 2.5195675 150.9624 2.5195312 150.9668 C 2.5194857 150.97232 2.5195768 150.9769 2.5195312 150.98242 C 2.5193258 151.00736 2.5197376 151.02389 2.5195312 151.04883 C 2.518549 149.31846 2.5179356 150.48223 2.5175781 151.51953 C 2.517442 151.56544 2.5180315 151.60537 2.5175781 151.6582 C 2.5175526 151.66117 2.5176036 151.66305 2.5175781 151.66602 L 2.5175781 151.66797 C 2.5172846 151.74314 2.5164091 151.80931 2.515625 151.89648 C 2.5151906 151.96099 2.5156341 152.02533 2.515625 152.0957 L 2.515625 152.10938 L 2.515625 152.11523 L 2.515625 152.11914 C 2.5133973 152.12951 2.5078125 152.14082 2.5078125 152.15039 L 2.5078125 152.16016 L 2.5078125 152.33203 L 2.5078125 152.3418 L 2.5078125 152.34375 L 2.5078125 154.76172 L 2.5078125 154.76562 L 2.5078125 154.76758 L 2.5078125 154.77148 L 2.5078125 154.77734 L 2.5078125 154.94727 L 2.5078125 154.95703 L 2.5078125 155.17188 L 2.5078125 155.17383 L 2.5078125 155.18359 L 2.5078125 155.35547 L 2.5078125 155.36523 L 2.5078125 169.00781 L 2.5078125 169.00977 L 2.5078125 169.01953 L 2.5078125 169.14844 L 2.5078125 169.1582 L 2.5078125 169.19141 L 2.5078125 169.20117 L 2.5078125 169.33008 L 2.5078125 169.33984 L 2.5078125 169.3418 L 2.5078125 182.98438 L 2.5078125 182.99414 L 2.5078125 183.16602 L 2.5078125 183.17578 L 2.5078125 183.17773 L 2.5078125 183.39258 L 2.5078125 183.40234 L 2.5078125 183.57227 L 2.5078125 183.57812 L 2.5078125 183.58203 L 2.5078125 183.58398 L 2.5078125 183.58789 L 2.5078125 186.00586 L 2.5078125 186.00781 L 2.5078125 186.01758 L 2.5078125 186.18945 L 2.5078125 186.19922 C 2.5078125 186.20938 2.5133671 186.22355 2.515625 186.23438 C 2.5157448 186.23495 2.5155242 186.23576 2.515625 186.23633 L 2.515625 186.24219 L 2.515625 186.25586 C 2.5156268 186.32317 2.5156073 186.38349 2.515625 186.45312 C 2.516164 186.53093 2.5175617 186.60866 2.5175781 186.69336 C 2.5196181 186.92555 2.5175313 187.07127 2.5195312 187.30273 C 2.5197342 187.33531 2.5192387 187.35968 2.5195312 187.39453 C 2.5197995 187.42717 2.5192643 187.44785 2.5195312 187.48047 C 2.8046568 222.32298 2.2199738 248.82524 3.3710938 269.05273 C 3.457843 276.2765 3.5443476 287.97163 3.6230469 293.21484 C 3.8739669 303.77993 4.5464344 311.67716 5.9589844 318.45312 C 7.3008244 323.95632 10.824549 327.03864 16.199219 328.63086 C 27.779659 331.89518 50.024278 332.09119 61.455078 332.61719 C 70.431609 332.75241 77.464731 332.73797 85.691406 332.80664 C 92.964032 333.0547 101.0012 333.19673 109.60547 333.26562 C 110.8059 333.27688 112.28412 333.27858 113.51172 333.28711 C 117.79023 333.31117 121.81749 333.35634 126.43359 333.35547 C 138.64155 333.35318 154.37293 333.29313 169.10547 333.24023 C 176.11082 333.29163 183.22564 333.33384 190.83398 333.33984 C 192.0773 333.34081 193.12495 333.35547 194.38477 333.35547 L 194.38672 333.35547 L 205.75586 333.35547 L 205.75781 333.35547 C 214.72686 333.35547 222.88698 333.30006 231.03711 333.24023 C 245.76965 333.29313 261.50102 333.35318 273.70898 333.35547 C 278.3275 333.35634 282.3581 333.3112 286.63867 333.28711 C 287.8632 333.27859 289.33767 333.27685 290.53516 333.26562 C 299.13191 333.19681 307.16226 333.05425 314.42969 332.80664 C 322.66326 332.73796 329.70272 332.75253 338.6875 332.61719 C 350.1183 332.09119 372.36292 331.89518 383.94336 328.63086 C 389.31803 327.03864 392.84175 323.95632 394.18359 318.45312 C 395.59614 311.67716 396.26861 303.77993 396.51953 293.21484 C 396.59814 287.97756 396.68484 276.29384 396.77148 269.08008 C 397.92592 248.83022 397.33586 222.30143 397.62305 187.39453 C 397.62313 187.38486 397.62297 187.37685 397.62305 187.36719 C 397.62325 187.34299 397.62285 187.32694 397.62305 187.30273 C 397.62455 187.12914 397.62462 186.99549 397.625 186.8457 C 397.62511 186.44937 397.6245 186.73811 397.625 186.67188 C 397.625 186.51762 397.62693 186.38895 397.62695 186.23438 C 397.62795 186.22348 397.63477 186.21022 397.63477 186.19922 L 397.63477 186.01758 L 397.63477 183.58398 L 397.63477 183.40234 L 397.63477 183.17773 L 397.63477 182.99414 L 397.63477 169.3418 L 397.63477 169.1582 L 397.63477 169.01953 L 397.63477 155.18359 L 397.63477 154.95703 L 397.63477 154.77734 L 397.63477 154.77148 L 397.63477 152.34375 L 397.63477 152.3418 L 397.63477 152.16016 L 397.63477 152.15039 C 397.63477 152.14082 397.6294 152.12951 397.62695 152.11914 L 397.62695 152.11523 L 397.62695 152.0957 C 397.62695 152.02756 397.62697 151.96681 397.62695 151.89648 C 397.62614 151.80558 397.62529 151.73623 397.625 151.6582 C 397.62414 151.42797 397.62529 151.22201 397.62305 150.95508 C 397.62301 150.95068 397.62308 150.94776 397.62305 150.94336 C 397.33616 116.04395 397.92576 89.516429 396.77148 69.269531 C 396.68484 62.056322 396.59814 50.373677 396.51953 45.136719 C 396.26861 34.571624 395.59614 26.67245 394.18359 19.896484 C 392.84175 14.393286 389.31803 11.310979 383.94336 9.71875 C 372.36292 6.4544308 350.1183 6.260375 338.6875 5.734375 C 329.73846 5.5995693 322.72907 5.613546 314.52539 5.5449219 C 307.26928 5.296598 299.2507 5.1553826 290.66797 5.0859375 C 289.33702 5.0733266 287.69645 5.0737189 286.33203 5.0644531 C 282.14529 5.0416195 278.21797 4.9952473 273.70898 4.9960938 C 261.50102 4.9983856 245.76965 5.0584701 231.03711 5.1113281 C 222.88698 5.0515118 214.72686 4.9960938 205.75781 4.9960938 L 205.75586 4.9960938 L 194.38477 4.9960938 C 193.12495 4.9960948 192.0773 5.0107447 190.83398 5.0117188 C 183.30652 5.024235 176.11082 5.0599137 169.10547 5.1113281 C 154.37293 5.0584701 138.64155 4.9983856 126.43359 4.9960938 z " />
  </g>
</svg>
